# xmcd
#
# Track frame offsets:
#	150
#	12989
#	33149
#	49633
#	66583
#	83845
#	104757
#	124326
#	141911
#	157140
#	174545
#	191027
#	207021
#	221236
#	237440
#	253877
#	271879
#	289296
#	302538
#
# Disc length: 4257 seconds
#
# Revision: 0
# Processed by: cddbd v1.5.1PL0 Copyright (c) Steve Scherf et al.
# Submitted via: dBpowerAMP V4.0
#
DISCID=29109f13
DTITLE=Leann Rimes - Greatest Hits
DYEAR=1900
DGENRE=Country
TTITLE0=Blue
TTITLE1=How dD I live
TTITLE2=Can't Fight The Moonlight
TTITLE3=One Way Ticket
TTITLE4=Commitment
TTITLE5=I Need You
TTITLE6=Written In The Stars
TTITLE7=Unchained Melody
TTITLE8=The Light In Your Eyes
TTITLE9=On The Side Of Angels
TTITLE10=You Light Up My Life
TTITLE11=Nothin' New Under The Moon
TTITLE12=Big Deal
TTITLE13=Life Goes On
TTITLE14=We Can
TTITLE15=Last Thing On My Mind
TTITLE16=This Love
TTITLE17=Crazy
TTITLE18=O Holy Night
EXTD=
EXTT0=
EXTT1=
EXTT2=
EXTT3=
EXTT4=
EXTT5=
EXTT6=
EXTT7=
EXTT8=
EXTT9=
EXTT10=
EXTT11=
EXTT12=
EXTT13=
EXTT14=
EXTT15=
EXTT16=
EXTT17=
EXTT18=
PLAYORDER=
